<svg width="32" height="32" xmlns="http://www.w3.org/2000/svg" fill="none">
 <defs>
  <clipPath id="clip0_117_2530">
   <rect fill="white" height="240.667" width="240.667" y="31.6665" x="31.667" id="svg_1"/>
  </clipPath>
 </defs>
 <g>
  <title>Layer 1</title>
  <g id="svg_7">
   <path fill="black" d="m0.0766,16.00005c0,8.79422 7.12916,15.92336 15.92344,15.92336c8.79422,0 15.92336,-7.12914 15.92336,-15.92336c0,-8.7943 -7.12914,-15.92345 -15.92336,-15.92345c-8.79429,0 -15.92344,7.12916 -15.92344,15.92345z" id="svg_4"/>
   <path fill="white" d="m10.86537,23.60344l10.2698,0c1.88831,0 3.08508,-2.03678 2.1351,-3.68347l-6.33809,-10.98546c-0.41366,-0.71729 -1.45018,-0.71729 -1.86383,0l-6.33937,10.98546c-0.94866,1.6439 0.24817,3.68347 2.13506,3.68347l0.00132,0zm6.07198,-11.37447l1.38031,2.67129l3.33068,5.95672c0.21966,0.38137 -0.05174,0.86979 -0.51184,0.86979l-4.19782,0l0,-9.49913l-0.00132,0.00132zm-6.58237,8.62934l3.32923,-5.95924l1.38044,-2.6701l0,9.49926l-4.19796,0c-0.4601,0 -0.73151,-0.48869 -0.51171,-0.86992z" id="svg_5"/>
  </g>
 </g>
</svg>