<svg width="32" height="32" xmlns="http://www.w3.org/2000/svg">
 <!-- Created with SVG Editor - http://github.com/mzalive/SVG Editor/ -->

 <g>
  <title>background</title>
  <rect fill="none" id="canvas_background" height="34" width="34" y="-1" x="-1"/>
  <g display="none" overflow="visible" y="0" x="0" height="100%" width="100%" id="canvasGrid">
   <rect fill="url(#gridpattern)" stroke-width="0" y="1" x="1" height="400" width="580"/>
  </g>
 </g>
 <g>
  <title>Layer 1</title>
  <defs>
   <linearGradient y2="0.000501" x2="0.177751" y1="0.961917" x1="0.743895" id="svg_81">
    <stop stop-color="#F1E813" offset="0.14"/>
    <stop stop-color="#E6E418" offset="0.3"/>
    <stop stop-color="#C9DA26" offset="0.58"/>
    <stop stop-color="#A2CC39" offset="0.89"/>
   </linearGradient>
   <linearGradient y2="0.200745" x2="0.948738" y1="0.730949" x1="0.087128" id="svg_80">
    <stop stop-color="#0FA7DF" offset="0.06"/>
    <stop stop-color="#0098F8" offset="0.54"/>
    <stop stop-color="#0290EA" offset="0.92"/>
   </linearGradient>
   <linearGradient y2="0.339954" x2="0.952574" y1="0.694643" x1="-0.020127" id="svg_79">
    <stop stop-color="#A2CC39" offset="0.12"/>
    <stop stop-color="#86C239" offset="0.28"/>
    <stop stop-color="#219F38" offset="0.87"/>
   </linearGradient>
   <linearGradient y2="0.730187" x2="0.926298" y1="0.211831" x1="-0.076494" id="svg_78">
    <stop stop-color="#0290EA" offset="0.06"/>
    <stop stop-color="#0C89CA" offset="0.79"/>
   </linearGradient>
   <linearGradient y2="0.778075" x2="1.003735" y1="0.262363" x1="0.078153" id="svg_77">
    <stop stop-color="#F1E813" offset="0.13"/>
    <stop stop-color="#EAE616" offset="0.3"/>
    <stop stop-color="#D8DF1F" offset="0.53"/>
    <stop stop-color="#BAD52D" offset="0.8"/>
    <stop stop-color="#A2CC39" offset="0.98"/>
   </linearGradient>
   <linearGradient y2="0.077691" x2="0.757989" y1="1.037699" x1="0.177692" id="svg_76">
    <stop stop-color="#A2CC39" offset="0.07"/>
    <stop stop-color="#81C45E" offset="0.26"/>
    <stop stop-color="#0FA7DF" offset="0.92"/>
   </linearGradient>
   <clipPath id="svg_75">
    <rect id="svg_100" x="46.02225" y="14.179507" fill="white" height="21.6207" width="168.414"/>
   </clipPath>
  </defs>
  <ellipse stroke="null" ry="15.882345" rx="15.845581" id="svg_103" cy="16.000001" cx="16.073527" stroke-opacity="null" stroke-width="null" fill="#ffffff"/>
  <g stroke="null" id="svg_101">
   <g stroke="null" id="svg_102">
    <path stroke="null" id="svg_83" fill="#21A038" d="m28.611321,6.22357c0.755272,0.978345 1.394682,2.041234 1.905225,3.167325l-14.482983,10.696647l-6.052829,-3.801527l0,-4.573423l6.052829,3.801527l12.577758,-9.290549z"/>
    <path stroke="null" id="svg_84" fill="url(#svg_81)" d="m3.803363,15.963231c0,-0.205222 0.004995,-0.40908 0.014985,-0.61177l-3.668187,-0.180093c-0.012485,0.262688 -0.019973,0.527909 -0.019973,0.795564c-0.001561,2.091375 0.409016,4.162394 1.208186,6.094325c0.799164,1.932029 1.971186,3.686887 3.448834,5.163959l2.601936,-2.605648c-1.137441,-1.135004 -2.039777,-2.484093 -2.655148,-3.969639c-0.615371,-1.485547 -0.931637,-3.078331 -0.930632,-4.686699z"/>
    <path stroke="null" id="svg_85" fill="url(#svg_80)" d="m16.030213,3.713189c0.204729,0 0.408178,0.00751 0.610445,0.017513l0.183547,-3.676452c-0.262956,-0.012509 -0.527686,-0.018763 -0.793992,-0.018763c-2.088378,-0.002552 -4.15656,0.408217 -6.085962,1.208717c-1.929413,0.800502 -3.681987,1.974972 -5.157103,3.45597l2.601936,2.606914c1.132899,-1.13999 2.479542,-2.04438 3.9625,-2.661147c1.482958,-0.616767 3.072912,-0.933765 4.67863,-0.932752z"/>
    <path stroke="null" id="svg_86" fill="url(#svg_79)" d="m16.030213,28.213536c-0.204729,0 -0.408277,0 -0.611725,-0.016266l-0.183547,3.675199c0.263843,0.013344 0.528967,0.020064 0.795272,0.020064c2.087492,0.002143 4.154688,-0.408886 6.083066,-1.209612c1.928378,-0.800726 3.67981,-1.975372 5.153803,-3.456341l-2.596951,-2.605648c-1.133106,1.139387 -2.479611,2.04326 -3.962274,2.659802c-1.482663,0.616543 -3.072321,0.93358 -4.677644,0.932801z"/>
    <path stroke="null" id="svg_87" fill="url(#svg_78)" d="m22.922246,5.850732l3.091336,-2.282932c-2.825523,-2.29236 -6.352524,-3.540234 -9.988295,-3.533847l0,3.678953c2.461975,-0.003058 4.866807,0.742384 6.896959,2.137825z"/>
    <path stroke="null" id="svg_88" fill="#21A038" d="m31.92916,15.963231c0.00197,-0.957054 -0.081577,-1.912451 -0.249754,-2.854603l-3.422174,2.526851c0,0.108893 0,0.217689 0,0.327751c0.000887,1.711612 -0.357242,3.404329 -1.051036,4.96838c-0.693893,1.564051 -1.708082,2.964567 -2.976754,4.110772l2.468379,2.73334c1.649363,-1.491878 2.967395,-3.314331 3.868579,-5.349215c0.901282,-2.034981 1.36552,-4.237003 1.362761,-6.463277z"/>
    <path stroke="null" id="svg_89" fill="url(#svg_77)" d="m16.030312,28.213536c-1.708476,0.000584 -3.398036,-0.358335 -4.95932,-1.05348c-1.561205,-0.695145 -2.959326,-1.711125 -4.103791,-2.982002l-2.726783,2.47182c1.488821,1.652783 3.30774,2.973528 5.338818,3.87672c2.031068,0.903094 4.228905,1.368472 6.451076,1.365842l0,-3.6789z"/>
    <path stroke="null" id="svg_90" fill="url(#svg_76)" d="m7.831134,6.883981l-2.467098,-2.733262c-1.649845,1.491566 -2.96835,3.313922 -3.870007,5.348883c-0.901645,2.034942 -1.366303,4.237061 -1.363835,6.46353l3.673179,0c-0.000759,-1.711515 0.3574,-3.404232 1.051243,-4.968283c0.693854,-1.564002 1.707924,-2.964558 2.976518,-4.110869z"/>
   </g>
  </g>
 </g>
</svg>